<?xml version="1.0" encoding="utf-8"?>
<!-- Generator: Adobe Illustrator 26.0.2, SVG Export Plug-In . SVG Version: 6.00 Build 0)  -->
<svg version="1.1" id="Layer_1" xmlns="http://www.w3.org/2000/svg" xmlns:xlink="http://www.w3.org/1999/xlink" x="0px" y="0px"
	 viewBox="0 0 1300 450" style="enable-background:new 0 0 1300 450;" xml:space="preserve">
<style type="text/css">
	.st0{fill:#396DFF;}
</style>
<g>
	<g>
		<g>
			<g>
				<path d="M406.6,150h-6.1c-1.1,0-1.8-0.5-2-1.5l-2-6.7h-14.7l-2,6.7c-0.3,1.1-1.1,1.5-2,1.5h-6c-1.3,0-1.9-0.8-1.5-2.1l12.8-37.4
					c0.4-1,1-1.5,2-1.5h8c1.1,0,1.8,0.5,2.1,1.5l12.9,37.4C408.6,149.3,407.9,150,406.6,150z M394.3,134.3l-5.2-17.5l-5.1,17.5
					H394.3z"/>
				<path d="M457.1,131.5v16.7c0,1.2-0.7,1.8-1.8,1.8H450c-1.2,0-1.9-0.7-1.9-1.8v-16c0-3.1-1.8-5-4.4-5c-2.9,0-4.7,2.2-4.7,5.8
					v15.3c0,1.2-0.7,1.8-1.8,1.8H432c-1.2,0-1.9-0.6-1.9-1.8v-16c0-3.1-1.8-5-4.4-5c-2.8,0-4.6,2.2-4.7,5.6l0.1,15.5
					c0,1.2-0.6,1.8-1.8,1.8H414c-1.2,0-1.8-0.7-1.8-1.8v-25.7c0-1.2,0.6-1.8,1.8-1.8h4.2c1.1,0,1.8,0.7,1.8,1.8v2.8
					c1.6-3.5,4.7-5.4,8.7-5.4c4.2,0,7.3,2,9,5.4c1.6-3.5,4.9-5.4,9-5.4C453.1,119.9,457.1,124.5,457.1,131.5z"/>
				<path d="M461.8,135.1c0-9.2,5.3-15.2,14.8-15.2c8.7,0,14,5.1,14.5,15.6c0.1,1.2-0.6,1.9-1.8,1.9h-18.1c0.5,4.3,2.8,7,6.6,7
					c2,0,3.7-0.8,4.6-2.4c0.6-0.9,1.2-1.3,2.3-1.1l4.1,0.7c1.2,0.2,1.8,1,1.3,2.2c-2,4.5-6.7,7.1-13,7.1
					C467.8,150.8,461.8,144.9,461.8,135.1z M481.8,132.4c-0.5-3.9-2.1-6.1-5.1-6.1c-3,0-4.9,2.1-5.3,6.1H481.8z"/>
				<path d="M514.7,121.4v5.3c0,0.9-0.5,1.5-1.3,1.5H513c-5,0-8,3-8.1,8.1l0.1,11.9c0,1.2-0.6,1.8-1.8,1.8h-5.3
					c-1.2,0-1.8-0.6-1.8-1.8v-25.7c0-1.2,0.6-1.8,1.8-1.8h3.9c1.1,0,1.8,0.7,1.8,1.8l-0.1,4.9c1.5-4.5,4.9-7.5,9.3-7.5h0.5
					C514.2,119.9,514.7,120.5,514.7,121.4z"/>
				<path d="M518.1,111.8c0-2.8,2.2-5,5-5c2.8,0,5,2.2,5,5c0,2.8-2.2,5-5,5C520.3,116.9,518.1,114.6,518.1,111.8z M525.7,150h-5.3
					c-1.2,0-1.8-0.7-1.8-1.8v-25.7c0-1.2,0.7-1.8,1.8-1.8h5.3c1.2,0,1.8,0.7,1.8,1.8v25.7C527.6,149.4,526.9,150,525.7,150z"/>
				<path d="M547.3,119.9c6.8,0,11.7,3.4,13.4,9c0.4,1.2-0.2,1.9-1.4,2.2l-4.8,0.8c-1.1,0.2-1.8-0.3-2.2-1.4
					c-0.8-1.9-2.3-3.3-4.6-3.3c-3.3,0-5.5,3.1-5.5,8.2c0,5,2,8.2,5.6,8.2c2.3,0,3.9-1.2,4.8-3.8c0.3-1.1,1.1-1.6,2.1-1.5l4.8,0.7
					c1.2,0.2,1.8,1,1.5,2.2c-1.7,6.2-6.6,9.6-13.5,9.6c-9,0-14.5-5.9-14.5-15.4C532.8,125.8,538.4,119.9,547.3,119.9z"/>
				<path d="M591.4,130.6v17.6c0,1.2-0.6,1.8-1.8,1.8h-4.2c-1.2,0-1.8-0.7-1.8-1.8v-2.1c-1.8,3-5.2,4.6-9.4,4.6
					c-6.2,0-10-3.3-10-8.7c0-5.8,4.5-9.3,12-9.3c2.3,0,4.8,0.3,6.5,1v-3.1c0-2.8-1.5-4.5-4-4.5c-1.8,0-3.2,0.9-3.9,2.2
					c-0.7,0.9-1.2,1.4-2.2,1.2l-5.1-0.8c-1.2-0.2-1.8-1.1-1.3-2.2c1.9-4.2,6.4-6.7,12.6-6.7C586.4,119.9,591.4,124,591.4,130.6z
					 M582.6,139.6v-1.1c-1.5-0.6-3.2-1-4.8-1c-3,0-4.8,1.4-4.8,3.6c0,2.2,1.6,3.5,4.3,3.5C580.6,144.7,582.6,142.7,582.6,139.6z"/>
				<path d="M624.9,131.5v16.7c0,1.2-0.7,1.8-1.8,1.8h-5.3c-1.2,0-1.8-0.7-1.8-1.8v-15.9c0-3.1-1.9-5.1-4.7-5.1
					c-2.9,0-4.9,2.2-4.9,5.6l0.1,15.4c0,1.2-0.6,1.8-1.8,1.8h-5.3c-1.2,0-1.8-0.7-1.8-1.8v-25.7c0-1.2,0.6-1.8,1.8-1.8h4.2
					c1.1,0,1.8,0.7,1.8,1.8v2.7c1.6-3.4,4.8-5.3,9-5.3C620.7,119.9,624.9,124.5,624.9,131.5z"/>
				<path d="M400.8,175.6v4.6c0,1.1-0.7,1.8-1.9,1.8h-15.5v10.8h12.8c1.2,0,1.8,0.6,1.8,1.8v4.6c0,1.2-0.6,1.9-1.8,1.9h-12.9v11.9
					c0,1.2-0.7,1.8-1.8,1.8h-5.7c-1.2,0-1.8-0.6-1.8-1.8v-37.4c0-1.2,0.6-1.8,1.8-1.8H399C400.1,173.8,400.8,174.5,400.8,175.6z"/>
				<path d="M402.6,200.1c0-9.4,5.9-15.4,15.3-15.4c9.4,0,15.3,6,15.3,15.4c0,9.5-5.9,15.5-15.3,15.5
					C408.5,215.6,402.6,209.6,402.6,200.1z M423.8,200.1c0-5-2.3-8.3-5.9-8.3s-5.9,3.2-5.9,8.3c0,5.1,2.3,8.3,5.9,8.3
					S423.8,205.2,423.8,200.1z"/>
				<path d="M464.8,187.4v25.7c0,1.2-0.7,1.8-1.9,1.8h-4c-1.1,0-1.8-0.7-1.8-1.8v-2.5c-1.7,3.2-5,5-9.3,5c-6.2,0-10-3.8-10-11.5
					v-16.8c0-1.2,0.6-1.8,1.8-1.8h5.3c1.2,0,1.8,0.6,1.8,1.8v16.1c0,3,1.8,4.8,4.6,4.8s4.6-2.1,4.7-5.3l-0.1-15.6
					c0-1.2,0.7-1.8,1.8-1.8h5.3C464.1,185.5,464.8,186.2,464.8,187.4z"/>
				<path d="M499.1,196.4v16.7c0,1.2-0.6,1.8-1.8,1.8H492c-1.2,0-1.8-0.7-1.8-1.8v-16c0-3.1-1.9-5.1-4.7-5.1c-2.9,0-4.9,2.2-4.9,5.6
					l0.1,15.4c0,1.2-0.6,1.8-1.8,1.8h-5.3c-1.2,0-1.8-0.6-1.8-1.8v-25.7c0-1.2,0.6-1.8,1.8-1.8h4.2c1.1,0,1.8,0.6,1.8,1.8v2.7
					c1.6-3.4,4.8-5.3,9-5.3C495,184.7,499.1,189.3,499.1,196.4z"/>
				<path d="M533,173.9v39.2c0,1.2-0.6,1.8-1.8,1.8H527c-1.2,0-1.8-0.7-1.8-1.8v-3.1c-2,3.6-5.3,5.6-9.6,5.6
					c-7.3,0-11.8-5.9-11.8-15.4c0-9.5,4.6-15.5,11.9-15.5c3.5,0,6.4,1.4,8.5,4v-14.8c0-1.2,0.7-1.8,1.8-1.8h5.3
					C532.4,172.1,533,172.7,533,173.9z M524.1,200.1c0-5-2.1-8.3-5.5-8.3c-3.4,0-5.5,3.2-5.5,8.3c0,5,2.1,8.3,5.5,8.3
					C522,208.4,524.1,205.2,524.1,200.1z"/>
				<path d="M565.7,195.5V213c0,1.2-0.6,1.8-1.8,1.8h-4.2c-1.2,0-1.8-0.7-1.8-1.8V211c-1.8,3-5.2,4.6-9.4,4.6c-6.2,0-10-3.3-10-8.7
					c0-5.8,4.5-9.3,12-9.3c2.4,0,4.8,0.4,6.5,1v-3.1c0-2.8-1.5-4.5-4-4.5c-1.8,0-3.2,0.9-3.9,2.2c-0.6,0.9-1.2,1.4-2.2,1.2l-5.1-0.8
					c-1.2-0.2-1.8-1.1-1.3-2.2c1.9-4.2,6.4-6.7,12.6-6.7C560.8,184.7,565.7,188.8,565.7,195.5z M556.9,204.5v-1.1
					c-1.5-0.7-3.2-1-4.8-1c-3,0-4.8,1.3-4.8,3.6c0,2.2,1.6,3.5,4.3,3.5C554.9,209.5,556.9,207.6,556.9,204.5z"/>
				<path d="M588.7,209.6v3.6c0,1.2-0.7,1.9-1.9,1.9h-4.1c-6.2,0-10-3.5-10-9l-0.1-13.4H571c-1.2,0-1.8-0.6-1.8-1.8l-0.1-3.6
					c0-1.2,0.7-1.8,1.8-1.8h2l2.4-5.9c0.4-0.9,1.1-1.3,2.2-1.3h2.2c1.2,0,1.9,0.6,1.9,1.8v5.4h4.6c1.2,0,1.8,0.6,1.8,1.8v3.6
					c0,1.2-0.6,1.8-1.8,1.8h-4.6v11.1c0,2.4,1.5,3.9,3.8,3.9h1.4C588,207.7,588.7,208.4,588.7,209.6z"/>
				<path d="M592.5,176.7c0-2.8,2.2-5,5-5c2.8,0,5,2.2,5,5c0,2.8-2.2,5-5,5C594.7,181.7,592.5,179.4,592.5,176.7z M600.2,214.9h-5.3
					c-1.2,0-1.8-0.6-1.8-1.8v-25.7c0-1.2,0.6-1.8,1.8-1.8h5.3c1.2,0,1.8,0.6,1.8,1.8v25.7C602,214.2,601.3,214.9,600.2,214.9z"/>
				<path d="M607.3,200.1c0-9.4,5.9-15.4,15.3-15.4c9.4,0,15.3,6,15.3,15.4c0,9.5-5.9,15.5-15.3,15.5
					C613.1,215.6,607.3,209.6,607.3,200.1z M628.5,200.1c0-5-2.3-8.3-5.9-8.3c-3.6,0-5.9,3.2-5.9,8.3c0,5.1,2.3,8.3,5.9,8.3
					C626.2,208.4,628.5,205.2,628.5,200.1z"/>
				<path d="M670.5,196.4v16.7c0,1.2-0.7,1.8-1.8,1.8h-5.3c-1.2,0-1.8-0.7-1.8-1.8v-16c0-3.1-1.9-5.1-4.7-5.1
					c-2.9,0-4.9,2.2-4.9,5.6L652,213c0,1.2-0.6,1.8-1.8,1.8h-5.3c-1.2,0-1.8-0.6-1.8-1.8v-25.7c0-1.2,0.7-1.8,1.8-1.8h4.2
					c1.1,0,1.8,0.6,1.8,1.8v2.7c1.6-3.4,4.8-5.3,9-5.3C666.4,184.7,670.5,189.3,670.5,196.4z"/>
				<path d="M446.1,267.9l5.8-1c1.1-0.2,1.8,0.3,2.3,1.3c1.4,3.1,4,4.8,7.9,4.8c3.6,0,5.8-1.5,5.8-4.1c0-8.1-22.2-4.5-22.2-18.8
					c0-8.2,6.7-12.2,15.1-12.2c8.3,0,13.4,4.1,15.2,9.7c0.4,1.2-0.2,1.9-1.5,2.2l-5.8,0.9c-1.1,0.2-1.8-0.3-2.2-1.3
					c-1.1-2.5-3.2-4-6.1-4c-3.4,0-5.4,1.9-5.4,4.1c0,7.3,22.2,4.1,22.2,18.5c0,7.7-5.9,12.6-15.2,12.6c-9.4,0-15.4-4.4-17.5-10.4
					C444.3,268.9,444.9,268.1,446.1,267.9z"/>
				<path d="M509.2,252.2v25.7c0,1.2-0.7,1.8-1.9,1.8h-4c-1.1,0-1.8-0.6-1.8-1.8v-2.5c-1.7,3.2-5,5-9.3,5c-6.2,0-10-3.8-10-11.5
					v-16.8c0-1.2,0.6-1.8,1.8-1.8h5.3c1.2,0,1.8,0.6,1.8,1.8v16.1c0,3,1.8,4.8,4.6,4.8s4.6-2.1,4.7-5.3l-0.1-15.6
					c0-1.2,0.7-1.8,1.8-1.8h5.3C508.5,250.4,509.2,251,509.2,252.2z"/>
				<path d="M515.5,241.5c0-2.8,2.2-5,5-5c2.8,0,5,2.2,5,5c0,2.8-2.2,5-5,5C517.7,246.6,515.5,244.3,515.5,241.5z M523.2,279.7h-5.3
					c-1.2,0-1.8-0.6-1.8-1.8v-25.7c0-1.2,0.6-1.8,1.8-1.8h5.3c1.2,0,1.8,0.6,1.8,1.8v25.7C525,279.1,524.3,279.7,523.2,279.7z"/>
				<path d="M544.7,249.6c6.8,0,11.7,3.4,13.4,9c0.4,1.2-0.2,1.9-1.4,2.2l-4.8,0.8c-1.1,0.2-1.8-0.3-2.2-1.4
					c-0.8-1.9-2.3-3.3-4.6-3.3c-3.3,0-5.5,3.1-5.5,8.2c0,5,2,8.2,5.6,8.2c2.3,0,3.9-1.2,4.8-3.8c0.3-1.1,1.1-1.6,2.1-1.5l4.8,0.7
					c1.2,0.2,1.8,1,1.5,2.2c-1.7,6.2-6.6,9.6-13.5,9.6c-9,0-14.5-5.9-14.5-15.4C530.3,255.5,535.8,249.6,544.7,249.6z"/>
				<path d="M562.4,241.5c0-2.8,2.2-5,5-5c2.8,0,5,2.2,5,5c0,2.8-2.2,5-5,5C564.7,246.6,562.4,244.3,562.4,241.5z M570.1,279.7h-5.3
					c-1.2,0-1.8-0.6-1.8-1.8v-25.7c0-1.2,0.7-1.8,1.8-1.8h5.3c1.2,0,1.8,0.6,1.8,1.8v25.7C571.9,279.1,571.3,279.7,570.1,279.7z"/>
				<path d="M606.5,238.7v39.2c0,1.2-0.7,1.8-1.8,1.8h-4.2c-1.2,0-1.8-0.6-1.8-1.8v-3.1c-2,3.6-5.3,5.6-9.6,5.6
					c-7.3,0-11.8-5.9-11.8-15.4c0-9.5,4.6-15.5,11.9-15.5c3.5,0,6.4,1.4,8.4,4v-14.9c0-1.2,0.7-1.8,1.8-1.8h5.3
					C605.8,236.9,606.5,237.5,606.5,238.7z M597.6,265c0-5-2.1-8.3-5.5-8.3c-3.4,0-5.5,3.2-5.5,8.3s2.1,8.3,5.5,8.3
					C595.5,273.3,597.6,270,597.6,265z"/>
				<path d="M611.8,264.8c0-9.2,5.3-15.3,14.8-15.3c8.7,0,14,5.1,14.5,15.6c0.1,1.2-0.6,1.9-1.8,1.9h-18.1c0.5,4.3,2.8,7,6.6,7
					c2,0,3.7-0.8,4.6-2.4c0.7-0.9,1.2-1.3,2.3-1.1l4.1,0.7c1.2,0.2,1.8,1,1.3,2.2c-2,4.5-6.7,7.1-13,7.1
					C617.7,280.5,611.8,274.6,611.8,264.8z M631.7,262.1c-0.5-3.9-2.1-6.1-5.1-6.1c-3,0-4.9,2.1-5.3,6.1H631.7z"/>
				<path d="M405.3,314.1c0,8.3-5.9,13.6-15.2,13.6h-6.7v12.3c0,1.2-0.7,1.8-1.8,1.8h-5.8c-1.2,0-1.8-0.6-1.8-1.8v-37.4
					c0-1.2,0.6-1.8,1.8-1.8h14.2C399.4,300.7,405.3,305.8,405.3,314.1z M395.5,314.1c0-3.6-2.5-5.8-6.4-5.8h-5.7V320h5.7
					C393,320,395.5,317.7,395.5,314.1z"/>
				<path d="M428.6,313.1v5.3c0,0.9-0.5,1.5-1.4,1.5h-0.4c-5,0-8,3.1-8.1,8.1l0.1,11.9c0,1.2-0.6,1.8-1.8,1.8h-5.3
					c-1.2,0-1.8-0.6-1.8-1.8v-25.7c0-1.2,0.6-1.8,1.8-1.8h3.9c1.1,0,1.8,0.6,1.8,1.8l-0.1,4.9c1.5-4.5,4.9-7.4,9.3-7.4h0.5
					C428,311.6,428.6,312.2,428.6,313.1z"/>
				<path d="M429.8,326.8c0-9.2,5.3-15.2,14.8-15.2c8.7,0,14,5.1,14.5,15.6c0.1,1.2-0.6,1.9-1.8,1.9h-18.1c0.5,4.3,2.8,7,6.6,7
					c2,0,3.7-0.8,4.6-2.4c0.6-0.9,1.2-1.3,2.3-1.1l4.1,0.7c1.2,0.2,1.8,1,1.3,2.2c-2,4.5-6.7,7.1-13,7.1
					C435.8,342.5,429.8,336.6,429.8,326.8z M449.7,324.1c-0.5-3.9-2.1-6.1-5.1-6.1c-3,0-4.9,2.1-5.3,6.1H449.7z"/>
				<path d="M490.7,314.5l-8.3,25.7c-0.4,1-1.1,1.5-2.1,1.5h-9c-1.1,0-1.8-0.5-2-1.5l-8.3-25.8c-0.4-1.3,0.2-2,1.5-2h5.9
					c1.1,0,1.8,0.5,2,1.5l5.5,19.9l5.5-19.9c0.3-1.1,0.9-1.5,2-1.5h5.6C490.4,312.4,491,313.2,490.7,314.5z"/>
				<path d="M493,326.8c0-9.2,5.3-15.2,14.8-15.2c8.7,0,14,5.1,14.5,15.6c0.1,1.2-0.6,1.9-1.8,1.9h-18.1c0.5,4.3,2.8,7,6.6,7
					c2,0,3.7-0.8,4.6-2.4c0.7-0.9,1.2-1.3,2.3-1.1l4.1,0.7c1.2,0.2,1.8,1,1.3,2.2c-2,4.5-6.7,7.1-13,7.1
					C498.9,342.5,493,336.6,493,326.8z M512.9,324.1c-0.5-3.9-2.1-6.1-5.1-6.1c-3,0-4.9,2.1-5.3,6.1H512.9z"/>
				<path d="M554.5,323.3v16.7c0,1.2-0.6,1.8-1.8,1.8h-5.3c-1.2,0-1.8-0.6-1.8-1.8V324c0-3.1-1.9-5.1-4.7-5.1
					c-2.9,0-4.9,2.2-4.9,5.6l0.1,15.4c0,1.2-0.6,1.8-1.8,1.8H529c-1.2,0-1.8-0.6-1.8-1.8v-25.7c0-1.2,0.7-1.8,1.8-1.8h4.2
					c1.1,0,1.8,0.6,1.8,1.8v2.7c1.6-3.4,4.8-5.3,9-5.3C550.4,311.6,554.5,316.2,554.5,323.3z"/>
				<path d="M577.7,336.5v3.6c0,1.2-0.7,1.9-1.9,1.9h-4.1c-6.2,0-10-3.5-10-9l-0.1-13.4H560c-1.2,0-1.8-0.6-1.8-1.8l-0.1-3.6
					c0-1.2,0.7-1.8,1.8-1.8h2l2.4-5.9c0.4-0.9,1.1-1.4,2.2-1.4h2.2c1.2,0,1.9,0.6,1.9,1.8v5.4h4.6c1.2,0,1.8,0.6,1.8,1.8v3.6
					c0,1.2-0.6,1.8-1.8,1.8h-4.6v11.1c0,2.4,1.5,3.9,3.8,3.9h1.4C577,334.6,577.7,335.3,577.7,336.5z"/>
				<path d="M581.5,303.6c0-2.8,2.2-5,5-5c2.8,0,5,2.2,5,5c0,2.8-2.2,5-5,5C583.7,308.6,581.5,306.3,581.5,303.6z M589.1,341.7h-5.3
					c-1.2,0-1.8-0.6-1.8-1.8v-25.7c0-1.2,0.7-1.8,1.8-1.8h5.3c1.2,0,1.8,0.6,1.8,1.8v25.7C591,341.1,590.3,341.7,589.1,341.7z"/>
				<path d="M596.2,327c0-9.4,5.9-15.4,15.3-15.4c9.4,0,15.3,6,15.3,15.4c0,9.5-5.9,15.5-15.3,15.5
					C602.1,342.5,596.2,336.5,596.2,327z M617.5,327c0-5-2.3-8.3-5.9-8.3c-3.6,0-5.9,3.2-5.9,8.3c0,5.1,2.3,8.3,5.9,8.3
					S617.5,332.1,617.5,327z"/>
				<path d="M659.5,323.3v16.7c0,1.2-0.7,1.8-1.8,1.8h-5.3c-1.2,0-1.8-0.6-1.8-1.8V324c0-3.1-1.9-5.1-4.7-5.1
					c-2.9,0-4.9,2.2-4.9,5.6l0.1,15.4c0,1.2-0.6,1.8-1.8,1.8h-5.3c-1.2,0-1.8-0.6-1.8-1.8v-25.7c0-1.2,0.6-1.8,1.8-1.8h4.2
					c1.1,0,1.8,0.6,1.8,1.8v2.7c1.6-3.4,4.8-5.3,9-5.3C655.3,311.6,659.5,316.2,659.5,323.3z"/>
			</g>
		</g>
	</g>
	<g>
		<g>
			<path d="M391.2,242.3h-0.6c-5.6,0-9.8,3.2-10.9,9.4l-0.1,0.7h-2.2c-0.8,0-1.4,0.6-1.6,1.3l-0.3,1.6c-0.2,1,0.6,1.9,1.6,1.9h1.7
				L377,268c-0.4,2.2-1.6,2.5-3.1,2.5h-1.1c-0.8,0-1.2,0.3-1.3,1.1l-0.8,3.3c-0.2,1,1.3,2,3.4,2c4.2,0,8.2-2,9.4-7.9l1.9-11.8h2.7
				c0.8,0,1.4-0.6,1.6-1.3l0.3-1.6c0.2-1-0.6-1.9-1.6-1.9h-2.1l0.1-0.7c0.4-2.2,1.7-3.2,3.2-3.2h1.1c0.8,0,1.4-0.6,1.6-1.3l0.5-3
				C392.9,243.2,392.1,242.3,391.2,242.3z"/>
			<path d="M403.6,251.9c-5.4,0-10.8,3.9-11.9,10.1c-1.1,6,3,10,8.4,10c5.5,0,11-3.9,12-10C413.2,255.9,409.1,251.9,403.6,251.9z
				 M405.8,262c-0.4,2.2-2.5,4-4.7,4s-3.7-1.8-3.3-4c0.4-2.2,2.5-4,4.7-4S406.2,259.8,405.8,262z"/>
			<path d="M430,251.9c-1.9,0-5.4,0.1-7,3.8l0.5-1.4c0.2-1-0.6-1.9-1.6-1.9h-3c-0.8,0-1.4,0.6-1.6,1.3l-2.8,16
				c-0.2,1,0.6,1.9,1.6,1.9h3.3c0.8,0,1.4-0.6,1.6-1.3l0.9-5c1-5.8,2.8-7.2,5.3-7.2c0.4,0,1,0,1.7,0.1s1.5-0.3,1.8-1l1.4-3.2
				C432.5,253.2,431.9,251.9,430,251.9z"/>
		</g>
	</g>
	<path class="st0" d="M315.1,181.5c-24.6-59.4-92.9-87.7-152.3-63.1c-59.4,24.6-87.7,92.9-63.1,152.3c11.9,28.8,34.3,51.2,63.1,63.1
		c14.4,6,29.5,8.9,44.6,8.9s30.2-3,44.6-8.9c28.8-11.9,51.2-34.3,63.1-63.1C327,241.9,327,210.2,315.1,181.5z M154.9,247.8
		c-5.8-14-5.8-29.5,0-43.5c5.8-14,16.7-24.9,30.8-30.8c14-5.8,29.5-5.8,43.5,0c14,5.8,24.9,16.7,30.8,30.8c12,29-1.8,62.3-30.8,74.3
		C200.2,290.6,166.9,276.8,154.9,247.8z M248.2,127.6L248.2,127.6L233,164.3l0,0c-16.5-6.8-34.7-6.8-51.2,0l0,0l-15.2-36.7
		C193,116.7,221.9,116.7,248.2,127.6z M109,185.3l36.7,15.2l0,0c-6.8,16.5-6.8,34.7,0,51.1l0,0L109,266.9l0,0
		C97.7,239.7,98.6,210.5,109,185.3z M166.6,324.6L166.6,324.6l15.2-36.8c8.1,3.3,16.8,5.2,25.6,5.2c8.5,0,17.2-1.6,25.5-5.1
		l15.2,36.7C221.9,335.5,192.9,335.5,166.6,324.6z M305.9,266.9L305.9,266.9l-36.7-15.2c6.8-16.5,6.8-34.7,0-51.1l0,0l36.7-15.2
		C316.8,211.6,316.8,240.6,305.9,266.9z"/>
</g>
<rect x="741.1" y="55.3" width="2.7" height="339"/>
<g>
	<path d="M851.8,207.9v5.9c0,1.5-0.8,2.3-2.3,2.3h-27.5c-1.5,0-2.3-0.8-2.3-2.3V166c0-1.5,0.8-2.3,2.3-2.3h7.3
		c1.4,0,2.3,0.8,2.3,2.3v39.6h17.8C850.9,205.6,851.8,206.5,851.8,207.9z"/>
	<path d="M902.7,189.7c0,16.7-9.6,27.4-24.9,27.4c-15.3,0-24.9-10.6-24.9-27.4c0-16.8,9.6-27.3,24.9-27.3
		C893.1,162.4,902.7,172.9,902.7,189.7z M865.5,189.7c0,10.4,4.8,16.9,12.3,16.9c7.6,0,12.3-6.5,12.3-16.9s-4.7-16.9-12.3-16.9
		C870.2,172.9,865.5,179.4,865.5,189.7z"/>
	<path d="M950.7,166.3L936,214.2c-0.5,1.3-1.4,1.9-2.7,1.9h-11.8c-1.3,0-2.2-0.6-2.6-1.9l-14.8-47.9c-0.5-1.6,0.3-2.6,2-2.6h7.9
		c1.4,0,2.2,0.7,2.5,2l10.7,40.6l10.7-40.6c0.4-1.3,1.3-2,2.6-2h8C950.4,163.6,951.2,164.6,950.7,166.3z"/>
	<path d="M965.9,216.1h-7.3c-1.5,0-2.3-0.8-2.3-2.3V166c0-1.5,0.8-2.3,2.3-2.3h7.3c1.4,0,2.3,0.8,2.3,2.3v47.8
		C968.2,215.3,967.3,216.1,965.9,216.1z"/>
	<path d="M1026.1,166v47.8c0,1.5-0.8,2.3-2.3,2.3h-11c-1.2,0-2.2-0.5-2.8-1.6l-12.9-21.9l-6.7-12.3v33.4c0,1.5-0.9,2.3-2.3,2.3h-6.4
		c-1.5,0-2.3-0.8-2.3-2.3V166c0-1.5,0.8-2.3,2.3-2.3h10.8c1.2,0,2.1,0.5,2.7,1.6l14.1,24.4l5.5,10.2V166c0-1.5,0.8-2.3,2.3-2.3h6.7
		C1025.2,163.6,1026.1,164.5,1026.1,166z"/>
	<path d="M1081.6,191v1.5c0,16.5-9.4,24.6-22.9,24.6c-15.4,0-24.1-10.6-24.1-27.1c0-17.1,9.3-27.6,24-27.6c10,0,18.7,4.9,21.5,14.2
		c0.5,1.5-0.3,2.5-1.8,2.8l-7.4,1.2c-1.4,0.3-2.2-0.4-2.8-1.7c-1.6-4-4.8-6-9.1-6c-7.6,0-11.8,6.2-11.8,17.2
		c0,10.1,3.5,16.5,11.8,16.5c5.8,0,9.3-3.1,9.8-9.4h-7.5c-1.5,0-2.4-0.9-2.4-2.3v-4c0-1.5,0.9-2.3,2.4-2.3h18
		C1080.8,188.7,1081.6,189.5,1081.6,191z"/>
	<path d="M879.1,236v47.8c0,1.5-0.8,2.3-2.3,2.3h-6.8c-1.4,0-2.3-0.8-2.3-2.3l0.2-32.1l-7.3,20.5l-5,12.1c-0.5,1.2-1.3,1.8-2.7,1.8
		h-7c-1.3,0-2.2-0.5-2.7-1.8l-5-12.2l-7.1-20.2v31.9c0,1.5-0.9,2.3-2.3,2.3h-6.7c-1.5,0-2.3-0.8-2.3-2.3V236c0-1.5,0.8-2.3,2.3-2.3
		h10.5c1.4,0,2.2,0.5,2.7,1.9l14.4,38.5l14.6-38.5c0.5-1.3,1.4-1.9,2.7-1.9h10C878.3,233.6,879.1,234.5,879.1,236z"/>
	<path d="M925,277.9v5.9c0,1.5-0.8,2.3-2.3,2.3h-30.1c-1.5,0-2.3-0.8-2.3-2.3V236c0-1.5,0.8-2.3,2.3-2.3h29.5c1.5,0,2.4,0.8,2.4,2.3
		v5.9c0,1.4-0.9,2.3-2.4,2.3h-19.9v10h15.8c1.5,0,2.3,0.8,2.3,2.3v5.9c0,1.5-0.8,2.3-2.3,2.3h-15.8v10.7h20.4
		C924.1,275.6,925,276.5,925,277.9z"/>
	<path d="M991.7,236v47.8c0,1.5-0.8,2.3-2.3,2.3h-6.8c-1.4,0-2.3-0.8-2.3-2.3l0.2-32.1l-7.3,20.5l-5,12.1c-0.5,1.2-1.3,1.8-2.7,1.8
		h-7c-1.3,0-2.2-0.5-2.7-1.8l-5-12.2l-7.1-20.2v31.9c0,1.5-0.9,2.3-2.3,2.3h-6.7c-1.5,0-2.3-0.8-2.3-2.3V236c0-1.5,0.8-2.3,2.3-2.3
		H945c1.4,0,2.2,0.5,2.7,1.9l14.4,38.5l14.6-38.5c0.5-1.3,1.4-1.9,2.7-1.9h10C990.9,233.6,991.7,234.5,991.7,236z"/>
	<path d="M1050.1,259.7c0,16.7-9.6,27.4-24.9,27.4c-15.3,0-24.9-10.6-24.9-27.4c0-16.8,9.6-27.3,24.9-27.3
		C1040.5,232.4,1050.1,242.9,1050.1,259.7z M1012.9,259.7c0,10.4,4.8,16.9,12.3,16.9c7.6,0,12.3-6.5,12.3-16.9s-4.7-16.9-12.3-16.9
		C1017.6,242.9,1012.9,249.4,1012.9,259.7z"/>
	<path d="M1096.6,286.1h-8.5c-1.3,0-2.1-0.5-2.8-1.7l-10.3-17.6h-5v16.9c0,1.5-0.9,2.3-2.3,2.3h-7.3c-1.5,0-2.3-0.8-2.3-2.3V236
		c0-1.5,0.8-2.3,2.3-2.3h18.2c11.9,0,19.4,6.4,19.4,16.8c0,7.2-3.8,12.5-10.4,14.9l10.6,18C1099.1,285,1098.4,286.1,1096.6,286.1z
		 M1070.1,257.6h7.2c5,0,8.2-2.8,8.2-7.1c0-4.3-3.2-7-8.2-7h-7.2V257.6z"/>
	<path d="M1114.6,286.1h-7.3c-1.5,0-2.3-0.8-2.3-2.3V236c0-1.5,0.8-2.3,2.3-2.3h7.3c1.4,0,2.3,0.8,2.3,2.3v47.8
		C1116.9,285.3,1116,286.1,1114.6,286.1z"/>
	<path d="M1162.7,277.9v5.9c0,1.5-0.8,2.3-2.3,2.3h-30.1c-1.5,0-2.3-0.8-2.3-2.3V236c0-1.5,0.8-2.3,2.3-2.3h29.5
		c1.5,0,2.4,0.8,2.4,2.3v5.9c0,1.4-0.9,2.3-2.4,2.3H1140v10h15.8c1.5,0,2.3,0.8,2.3,2.3v5.9c0,1.5-0.8,2.3-2.3,2.3H1140v10.7h20.4
		C1161.9,275.6,1162.7,276.5,1162.7,277.9z"/>
	<path d="M1169.1,271l7.4-1.3c1.4-0.2,2.2,0.4,2.9,1.7c1.7,4,5.2,6.1,10.1,6.1c4.7,0,7.4-1.9,7.4-5.2c0-10.4-28.3-5.7-28.3-24.1
		c0-10.5,8.6-15.6,19.3-15.6c10.6,0,17.1,5.2,19.5,12.4c0.5,1.5-0.3,2.5-1.9,2.8l-7.3,1.2c-1.4,0.2-2.2-0.4-2.8-1.7
		c-1.4-3.1-4.1-5.1-7.8-5.1c-4.4,0-6.9,2.4-6.9,5.2c0,9.4,28.4,5.2,28.4,23.6c0,9.9-7.6,16.1-19.4,16.1c-12,0-19.6-5.6-22.3-13.3
		C1166.8,272.3,1167.6,271.3,1169.1,271z"/>
</g>
</svg>
