<?xml version="1.0" encoding="utf-8"?>
<!-- Generator: Adobe Illustrator 26.0.3, SVG Export Plug-In . SVG Version: 6.00 Build 0)  -->
<svg version="1.1" id="Layer_1" xmlns="http://www.w3.org/2000/svg" xmlns:xlink="http://www.w3.org/1999/xlink" x="0px" y="0px"
	 viewBox="0 0 280 280" style="enable-background:new 0 0 280 280;" xml:space="preserve">
<style type="text/css">
	.st0{fill:#396DFF;}
</style>
<path class="st0" d="M247.7,95.4C223.1,36,154.8,7.7,95.4,32.3S7.7,125.2,32.3,184.6c11.9,28.8,34.3,51.2,63.1,63.1
	c14.4,6,29.5,8.9,44.6,8.9s30.2-3,44.6-8.9c28.8-11.9,51.2-34.3,63.1-63.1S259.6,124.1,247.7,95.4z M87.5,161.7
	c-5.8-14-5.8-29.5,0-43.5s16.7-24.9,30.8-30.8c14-5.8,29.5-5.8,43.5,0s24.9,16.7,30.8,30.8c12,29-1.8,62.3-30.8,74.3
	S99.5,190.7,87.5,161.7z M180.8,41.5L180.8,41.5l-15.2,36.7l0,0c-16.5-6.8-34.7-6.8-51.2,0l0,0L99.2,41.5
	C125.6,30.6,154.5,30.6,180.8,41.5z M41.6,99.2l36.7,15.2l0,0c-6.8,16.5-6.8,34.7,0,51.1l0,0l-36.7,15.3l0,0
	C30.3,153.6,31.2,124.4,41.6,99.2z M99.2,238.5L99.2,238.5l15.2-36.8c8.1,3.3,16.8,5.2,25.6,5.2c8.5,0,17.2-1.6,25.5-5.1l15.2,36.7
	C154.5,249.4,125.5,249.4,99.2,238.5z M238.5,180.8L238.5,180.8l-36.7-15.2c6.8-16.5,6.8-34.7,0-51.1l0,0l36.7-15.2
	C249.4,125.5,249.4,154.5,238.5,180.8z"/>
</svg>
