<?xml version="1.0" encoding="utf-8"?>
<!-- Generator: Adobe Illustrator 26.0.2, SVG Export Plug-In . SVG Version: 6.00 Build 0)  -->
<svg version="1.1" id="Layer_1" xmlns="http://www.w3.org/2000/svg" xmlns:xlink="http://www.w3.org/1999/xlink" x="0px" y="0px"
	 viewBox="0 0 1131 349" style="enable-background:new 0 0 1131 349;" xml:space="preserve">
<style type="text/css">
	.st0{fill:#396DFF;}
</style>
<g>
	<g>
		<g>
			<g>
				<path d="M320.6,100h-6.1c-1.1,0-1.8-0.5-2-1.5l-2-6.7h-14.7l-2,6.7c-0.3,1.1-1.1,1.5-2,1.5h-6c-1.3,0-1.9-0.8-1.5-2.1l12.8-37.4
					c0.4-1,1-1.5,2-1.5h8c1.1,0,1.8,0.5,2.1,1.5l12.9,37.4C322.6,99.3,321.9,100,320.6,100z M308.3,84.3l-5.2-17.5L298,84.3H308.3z"
					/>
				<path d="M371.1,81.5v16.7c0,1.2-0.7,1.8-1.8,1.8H364c-1.2,0-1.9-0.7-1.9-1.8v-16c0-3.1-1.8-5-4.4-5c-2.9,0-4.7,2.2-4.7,5.8v15.3
					c0,1.2-0.7,1.8-1.8,1.8H346c-1.2,0-1.9-0.6-1.9-1.8v-16c0-3.1-1.8-5-4.4-5c-2.8,0-4.6,2.2-4.7,5.6l0.1,15.5
					c0,1.2-0.6,1.8-1.8,1.8H328c-1.2,0-1.8-0.7-1.8-1.8V72.7c0-1.2,0.6-1.8,1.8-1.8h4.2c1.1,0,1.8,0.7,1.8,1.8v2.8
					c1.6-3.5,4.7-5.4,8.7-5.4c4.2,0,7.3,2,9,5.4c1.6-3.5,4.9-5.4,9-5.4C367.1,69.9,371.1,74.5,371.1,81.5z"/>
				<path d="M375.8,85.1c0-9.2,5.3-15.2,14.8-15.2c8.7,0,14,5.1,14.5,15.6c0.1,1.2-0.6,1.9-1.8,1.9h-18.1c0.5,4.3,2.8,7,6.6,7
					c2,0,3.7-0.8,4.6-2.4c0.6-0.9,1.2-1.3,2.3-1.1l4.1,0.7c1.2,0.2,1.8,1,1.3,2.2c-2,4.5-6.7,7.1-13,7.1
					C381.8,100.8,375.8,94.9,375.8,85.1z M395.8,82.4c-0.5-3.9-2.1-6.1-5.1-6.1s-4.9,2.1-5.3,6.1H395.8z"/>
				<path d="M428.7,71.4v5.3c0,0.9-0.5,1.5-1.3,1.5H427c-5,0-8,3-8.1,8.1l0.1,11.9c0,1.2-0.6,1.8-1.8,1.8h-5.3
					c-1.2,0-1.8-0.6-1.8-1.8V72.5c0-1.2,0.6-1.8,1.8-1.8h3.9c1.1,0,1.8,0.7,1.8,1.8l-0.1,4.9c1.5-4.5,4.9-7.5,9.3-7.5h0.5
					C428.2,69.9,428.7,70.5,428.7,71.4z"/>
				<path d="M432.1,61.8c0-2.8,2.2-5,5-5s5,2.2,5,5s-2.2,5-5,5C434.3,66.9,432.1,64.6,432.1,61.8z M439.7,100h-5.3
					c-1.2,0-1.8-0.7-1.8-1.8V72.5c0-1.2,0.7-1.8,1.8-1.8h5.3c1.2,0,1.8,0.7,1.8,1.8v25.7C441.6,99.4,440.9,100,439.7,100z"/>
				<path d="M461.3,69.9c6.8,0,11.7,3.4,13.4,9c0.4,1.2-0.2,1.9-1.4,2.2l-4.8,0.8c-1.1,0.2-1.8-0.3-2.2-1.4
					c-0.8-1.9-2.3-3.3-4.6-3.3c-3.3,0-5.5,3.1-5.5,8.2c0,5,2,8.2,5.6,8.2c2.3,0,3.9-1.2,4.8-3.8c0.3-1.1,1.1-1.6,2.1-1.5l4.8,0.7
					c1.2,0.2,1.8,1,1.5,2.2c-1.7,6.2-6.6,9.6-13.5,9.6c-9,0-14.5-5.9-14.5-15.4C446.8,75.8,452.4,69.9,461.3,69.9z"/>
				<path d="M505.4,80.6v17.6c0,1.2-0.6,1.8-1.8,1.8h-4.2c-1.2,0-1.8-0.7-1.8-1.8v-2.1c-1.8,3-5.2,4.6-9.4,4.6c-6.2,0-10-3.3-10-8.7
					c0-5.8,4.5-9.3,12-9.3c2.3,0,4.8,0.3,6.5,1v-3.1c0-2.8-1.5-4.5-4-4.5c-1.8,0-3.2,0.9-3.9,2.2c-0.7,0.9-1.2,1.4-2.2,1.2l-5.1-0.8
					c-1.2-0.2-1.8-1.1-1.3-2.2c1.9-4.2,6.4-6.7,12.6-6.7C500.4,69.9,505.4,74,505.4,80.6z M496.6,89.6v-1.1c-1.5-0.6-3.2-1-4.8-1
					c-3,0-4.8,1.4-4.8,3.6c0,2.2,1.6,3.5,4.3,3.5C494.6,94.7,496.6,92.7,496.6,89.6z"/>
				<path d="M538.9,81.5v16.7c0,1.2-0.7,1.8-1.8,1.8h-5.3c-1.2,0-1.8-0.7-1.8-1.8V82.3c0-3.1-1.9-5.1-4.7-5.1
					c-2.9,0-4.9,2.2-4.9,5.6l0.1,15.4c0,1.2-0.6,1.8-1.8,1.8h-5.3c-1.2,0-1.8-0.7-1.8-1.8V72.5c0-1.2,0.6-1.8,1.8-1.8h4.2
					c1.1,0,1.8,0.7,1.8,1.8v2.7c1.6-3.4,4.8-5.3,9-5.3C534.7,69.9,538.9,74.5,538.9,81.5z"/>
				<path d="M314.8,125.6v4.6c0,1.1-0.7,1.8-1.9,1.8h-15.5v10.8h12.8c1.2,0,1.8,0.6,1.8,1.8v4.6c0,1.2-0.6,1.9-1.8,1.9h-12.9V163
					c0,1.2-0.7,1.8-1.8,1.8h-5.7c-1.2,0-1.8-0.6-1.8-1.8v-37.4c0-1.2,0.6-1.8,1.8-1.8H313C314.1,123.8,314.8,124.5,314.8,125.6z"/>
				<path d="M316.6,150.1c0-9.4,5.9-15.4,15.3-15.4s15.3,6,15.3,15.4c0,9.5-5.9,15.5-15.3,15.5S316.6,159.6,316.6,150.1z
					 M337.8,150.1c0-5-2.3-8.3-5.9-8.3s-5.9,3.2-5.9,8.3s2.3,8.3,5.9,8.3S337.8,155.2,337.8,150.1z"/>
				<path d="M378.8,137.4v25.7c0,1.2-0.7,1.8-1.9,1.8h-4c-1.1,0-1.8-0.7-1.8-1.8v-2.5c-1.7,3.2-5,5-9.3,5c-6.2,0-10-3.8-10-11.5
					v-16.8c0-1.2,0.6-1.8,1.8-1.8h5.3c1.2,0,1.8,0.6,1.8,1.8v16.1c0,3,1.8,4.8,4.6,4.8s4.6-2.1,4.7-5.3l-0.1-15.6
					c0-1.2,0.7-1.8,1.8-1.8h5.3C378.1,135.5,378.8,136.2,378.8,137.4z"/>
				<path d="M413.1,146.4v16.7c0,1.2-0.6,1.8-1.8,1.8H406c-1.2,0-1.8-0.7-1.8-1.8v-16c0-3.1-1.9-5.1-4.7-5.1c-2.9,0-4.9,2.2-4.9,5.6
					l0.1,15.4c0,1.2-0.6,1.8-1.8,1.8h-5.3c-1.2,0-1.8-0.6-1.8-1.8v-25.7c0-1.2,0.6-1.8,1.8-1.8h4.2c1.1,0,1.8,0.6,1.8,1.8v2.7
					c1.6-3.4,4.8-5.3,9-5.3C409,134.7,413.1,139.3,413.1,146.4z"/>
				<path d="M447,123.9v39.2c0,1.2-0.6,1.8-1.8,1.8H441c-1.2,0-1.8-0.7-1.8-1.8V160c-2,3.6-5.3,5.6-9.6,5.6
					c-7.3,0-11.8-5.9-11.8-15.4s4.6-15.5,11.9-15.5c3.5,0,6.4,1.4,8.5,4v-14.8c0-1.2,0.7-1.8,1.8-1.8h5.3
					C446.4,122.1,447,122.7,447,123.9z M438.1,150.1c0-5-2.1-8.3-5.5-8.3s-5.5,3.2-5.5,8.3c0,5,2.1,8.3,5.5,8.3
					C436,158.4,438.1,155.2,438.1,150.1z"/>
				<path d="M479.7,145.5V163c0,1.2-0.6,1.8-1.8,1.8h-4.2c-1.2,0-1.8-0.7-1.8-1.8v-2c-1.8,3-5.2,4.6-9.4,4.6c-6.2,0-10-3.3-10-8.7
					c0-5.8,4.5-9.3,12-9.3c2.4,0,4.8,0.4,6.5,1v-3.1c0-2.8-1.5-4.5-4-4.5c-1.8,0-3.2,0.9-3.9,2.2c-0.6,0.9-1.2,1.4-2.2,1.2l-5.1-0.8
					c-1.2-0.2-1.8-1.1-1.3-2.2c1.9-4.2,6.4-6.7,12.6-6.7C474.8,134.7,479.7,138.8,479.7,145.5z M470.9,154.5v-1.1
					c-1.5-0.7-3.2-1-4.8-1c-3,0-4.8,1.3-4.8,3.6c0,2.2,1.6,3.5,4.3,3.5C468.9,159.5,470.9,157.6,470.9,154.5z"/>
				<path d="M502.7,159.6v3.6c0,1.2-0.7,1.9-1.9,1.9h-4.1c-6.2,0-10-3.5-10-9l-0.1-13.4H485c-1.2,0-1.8-0.6-1.8-1.8l-0.1-3.6
					c0-1.2,0.7-1.8,1.8-1.8h2l2.4-5.9c0.4-0.9,1.1-1.3,2.2-1.3h2.2c1.2,0,1.9,0.6,1.9,1.8v5.4h4.6c1.2,0,1.8,0.6,1.8,1.8v3.6
					c0,1.2-0.6,1.8-1.8,1.8h-4.6v11.1c0,2.4,1.5,3.9,3.8,3.9h1.4C502,157.7,502.7,158.4,502.7,159.6z"/>
				<path d="M506.5,126.7c0-2.8,2.2-5,5-5s5,2.2,5,5s-2.2,5-5,5S506.5,129.4,506.5,126.7z M514.2,164.9h-5.3c-1.2,0-1.8-0.6-1.8-1.8
					v-25.7c0-1.2,0.6-1.8,1.8-1.8h5.3c1.2,0,1.8,0.6,1.8,1.8v25.7C516,164.2,515.3,164.9,514.2,164.9z"/>
				<path d="M521.3,150.1c0-9.4,5.9-15.4,15.3-15.4c9.4,0,15.3,6,15.3,15.4c0,9.5-5.9,15.5-15.3,15.5
					C527.1,165.6,521.3,159.6,521.3,150.1z M542.5,150.1c0-5-2.3-8.3-5.9-8.3c-3.6,0-5.9,3.2-5.9,8.3s2.3,8.3,5.9,8.3
					C540.2,158.4,542.5,155.2,542.5,150.1z"/>
				<path d="M584.5,146.4v16.7c0,1.2-0.7,1.8-1.8,1.8h-5.3c-1.2,0-1.8-0.7-1.8-1.8v-16c0-3.1-1.9-5.1-4.7-5.1
					c-2.9,0-4.9,2.2-4.9,5.6V163c0,1.2-0.6,1.8-1.8,1.8h-5.3c-1.2,0-1.8-0.6-1.8-1.8v-25.7c0-1.2,0.7-1.8,1.8-1.8h4.2
					c1.1,0,1.8,0.6,1.8,1.8v2.7c1.6-3.4,4.8-5.3,9-5.3C580.4,134.7,584.5,139.3,584.5,146.4z"/>
				<path d="M360.1,217.9l5.8-1c1.1-0.2,1.8,0.3,2.3,1.3c1.4,3.1,4,4.8,7.9,4.8c3.6,0,5.8-1.5,5.8-4.1c0-8.1-22.2-4.5-22.2-18.8
					c0-8.2,6.7-12.2,15.1-12.2c8.3,0,13.4,4.1,15.2,9.7c0.4,1.2-0.2,1.9-1.5,2.2l-5.8,0.9c-1.1,0.2-1.8-0.3-2.2-1.3
					c-1.1-2.5-3.2-4-6.1-4c-3.4,0-5.4,1.9-5.4,4.1c0,7.3,22.2,4.1,22.2,18.5c0,7.7-5.9,12.6-15.2,12.6c-9.4,0-15.4-4.4-17.5-10.4
					C358.3,218.9,358.9,218.1,360.1,217.9z"/>
				<path d="M423.2,202.2v25.7c0,1.2-0.7,1.8-1.9,1.8h-4c-1.1,0-1.8-0.6-1.8-1.8v-2.5c-1.7,3.2-5,5-9.3,5c-6.2,0-10-3.8-10-11.5
					v-16.8c0-1.2,0.6-1.8,1.8-1.8h5.3c1.2,0,1.8,0.6,1.8,1.8v16.1c0,3,1.8,4.8,4.6,4.8s4.6-2.1,4.7-5.3l-0.1-15.6
					c0-1.2,0.7-1.8,1.8-1.8h5.3C422.5,200.4,423.2,201,423.2,202.2z"/>
				<path d="M429.5,191.5c0-2.8,2.2-5,5-5s5,2.2,5,5s-2.2,5-5,5C431.7,196.6,429.5,194.3,429.5,191.5z M437.2,229.7h-5.3
					c-1.2,0-1.8-0.6-1.8-1.8v-25.7c0-1.2,0.6-1.8,1.8-1.8h5.3c1.2,0,1.8,0.6,1.8,1.8v25.7C439,229.1,438.3,229.7,437.2,229.7z"/>
				<path d="M458.7,199.6c6.8,0,11.7,3.4,13.4,9c0.4,1.2-0.2,1.9-1.4,2.2l-4.8,0.8c-1.1,0.2-1.8-0.3-2.2-1.4
					c-0.8-1.9-2.3-3.3-4.6-3.3c-3.3,0-5.5,3.1-5.5,8.2c0,5,2,8.2,5.6,8.2c2.3,0,3.9-1.2,4.8-3.8c0.3-1.1,1.1-1.6,2.1-1.5l4.8,0.7
					c1.2,0.2,1.8,1,1.5,2.2c-1.7,6.2-6.6,9.6-13.5,9.6c-9,0-14.5-5.9-14.5-15.4C444.3,205.5,449.8,199.6,458.7,199.6z"/>
				<path d="M476.4,191.5c0-2.8,2.2-5,5-5s5,2.2,5,5s-2.2,5-5,5C478.7,196.6,476.4,194.3,476.4,191.5z M484.1,229.7h-5.3
					c-1.2,0-1.8-0.6-1.8-1.8v-25.7c0-1.2,0.7-1.8,1.8-1.8h5.3c1.2,0,1.8,0.6,1.8,1.8v25.7C485.9,229.1,485.3,229.7,484.1,229.7z"/>
				<path d="M520.5,188.7v39.2c0,1.2-0.7,1.8-1.8,1.8h-4.2c-1.2,0-1.8-0.6-1.8-1.8v-3.1c-2,3.6-5.3,5.6-9.6,5.6
					c-7.3,0-11.8-5.9-11.8-15.4s4.6-15.5,11.9-15.5c3.5,0,6.4,1.4,8.4,4v-14.9c0-1.2,0.7-1.8,1.8-1.8h5.3
					C519.8,186.9,520.5,187.5,520.5,188.7z M511.6,215c0-5-2.1-8.3-5.5-8.3s-5.5,3.2-5.5,8.3s2.1,8.3,5.5,8.3S511.6,220,511.6,215z"
					/>
				<path d="M525.8,214.8c0-9.2,5.3-15.3,14.8-15.3c8.7,0,14,5.1,14.5,15.6c0.1,1.2-0.6,1.9-1.8,1.9h-18.1c0.5,4.3,2.8,7,6.6,7
					c2,0,3.7-0.8,4.6-2.4c0.7-0.9,1.2-1.3,2.3-1.1l4.1,0.7c1.2,0.2,1.8,1,1.3,2.2c-2,4.5-6.7,7.1-13,7.1
					C531.7,230.5,525.8,224.6,525.8,214.8z M545.7,212.1c-0.5-3.9-2.1-6.1-5.1-6.1s-4.9,2.1-5.3,6.1H545.7z"/>
				<path d="M319.3,264.1c0,8.3-5.9,13.6-15.2,13.6h-6.7V290c0,1.2-0.7,1.8-1.8,1.8h-5.8c-1.2,0-1.8-0.6-1.8-1.8v-37.4
					c0-1.2,0.6-1.8,1.8-1.8H304C313.4,250.7,319.3,255.8,319.3,264.1z M309.5,264.1c0-3.6-2.5-5.8-6.4-5.8h-5.7V270h5.7
					C307,270,309.5,267.7,309.5,264.1z"/>
				<path d="M342.6,263.1v5.3c0,0.9-0.5,1.5-1.4,1.5h-0.4c-5,0-8,3.1-8.1,8.1l0.1,11.9c0,1.2-0.6,1.8-1.8,1.8h-5.3
					c-1.2,0-1.8-0.6-1.8-1.8v-25.7c0-1.2,0.6-1.8,1.8-1.8h3.9c1.1,0,1.8,0.6,1.8,1.8l-0.1,4.9c1.5-4.5,4.9-7.4,9.3-7.4h0.5
					C342,261.6,342.6,262.2,342.6,263.1z"/>
				<path d="M343.8,276.8c0-9.2,5.3-15.2,14.8-15.2c8.7,0,14,5.1,14.5,15.6c0.1,1.2-0.6,1.9-1.8,1.9h-18.1c0.5,4.3,2.8,7,6.6,7
					c2,0,3.7-0.8,4.6-2.4c0.6-0.9,1.2-1.3,2.3-1.1l4.1,0.7c1.2,0.2,1.8,1,1.3,2.2c-2,4.5-6.7,7.1-13,7.1
					C349.8,292.5,343.8,286.6,343.8,276.8z M363.7,274.1c-0.5-3.9-2.1-6.1-5.1-6.1s-4.9,2.1-5.3,6.1H363.7z"/>
				<path d="M404.7,264.5l-8.3,25.7c-0.4,1-1.1,1.5-2.1,1.5h-9c-1.1,0-1.8-0.5-2-1.5l-8.3-25.8c-0.4-1.3,0.2-2,1.5-2h5.9
					c1.1,0,1.8,0.5,2,1.5l5.5,19.9l5.5-19.9c0.3-1.1,0.9-1.5,2-1.5h5.6C404.4,262.4,405,263.2,404.7,264.5z"/>
				<path d="M407,276.8c0-9.2,5.3-15.2,14.8-15.2c8.7,0,14,5.1,14.5,15.6c0.1,1.2-0.6,1.9-1.8,1.9h-18.1c0.5,4.3,2.8,7,6.6,7
					c2,0,3.7-0.8,4.6-2.4c0.7-0.9,1.2-1.3,2.3-1.1l4.1,0.7c1.2,0.2,1.8,1,1.3,2.2c-2,4.5-6.7,7.1-13,7.1
					C412.9,292.5,407,286.6,407,276.8z M426.9,274.1c-0.5-3.9-2.1-6.1-5.1-6.1s-4.9,2.1-5.3,6.1H426.9z"/>
				<path d="M468.5,273.3V290c0,1.2-0.6,1.8-1.8,1.8h-5.3c-1.2,0-1.8-0.6-1.8-1.8v-16c0-3.1-1.9-5.1-4.7-5.1c-2.9,0-4.9,2.2-4.9,5.6
					l0.1,15.4c0,1.2-0.6,1.8-1.8,1.8H443c-1.2,0-1.8-0.6-1.8-1.8v-25.7c0-1.2,0.7-1.8,1.8-1.8h4.2c1.1,0,1.8,0.6,1.8,1.8v2.7
					c1.6-3.4,4.8-5.3,9-5.3C464.4,261.6,468.5,266.2,468.5,273.3z"/>
				<path d="M491.7,286.5v3.6c0,1.2-0.7,1.9-1.9,1.9h-4.1c-6.2,0-10-3.5-10-9l-0.1-13.4H474c-1.2,0-1.8-0.6-1.8-1.8l-0.1-3.6
					c0-1.2,0.7-1.8,1.8-1.8h2l2.4-5.9c0.4-0.9,1.1-1.4,2.2-1.4h2.2c1.2,0,1.9,0.6,1.9,1.8v5.4h4.6c1.2,0,1.8,0.6,1.8,1.8v3.6
					c0,1.2-0.6,1.8-1.8,1.8h-4.6v11.1c0,2.4,1.5,3.9,3.8,3.9h1.4C491,284.6,491.7,285.3,491.7,286.5z"/>
				<path d="M495.5,253.6c0-2.8,2.2-5,5-5s5,2.2,5,5s-2.2,5-5,5S495.5,256.3,495.5,253.6z M503.1,291.7h-5.3c-1.2,0-1.8-0.6-1.8-1.8
					v-25.7c0-1.2,0.7-1.8,1.8-1.8h5.3c1.2,0,1.8,0.6,1.8,1.8v25.7C505,291.1,504.3,291.7,503.1,291.7z"/>
				<path d="M510.2,277c0-9.4,5.9-15.4,15.3-15.4c9.4,0,15.3,6,15.3,15.4c0,9.5-5.9,15.5-15.3,15.5
					C516.1,292.5,510.2,286.5,510.2,277z M531.5,277c0-5-2.3-8.3-5.9-8.3c-3.6,0-5.9,3.2-5.9,8.3c0,5.1,2.3,8.3,5.9,8.3
					S531.5,282.1,531.5,277z"/>
				<path d="M573.5,273.3V290c0,1.2-0.7,1.8-1.8,1.8h-5.3c-1.2,0-1.8-0.6-1.8-1.8v-16c0-3.1-1.9-5.1-4.7-5.1c-2.9,0-4.9,2.2-4.9,5.6
					l0.1,15.4c0,1.2-0.6,1.8-1.8,1.8H548c-1.2,0-1.8-0.6-1.8-1.8v-25.7c0-1.2,0.6-1.8,1.8-1.8h4.2c1.1,0,1.8,0.6,1.8,1.8v2.7
					c1.6-3.4,4.8-5.3,9-5.3C569.3,261.6,573.5,266.2,573.5,273.3z"/>
			</g>
		</g>
	</g>
	<g>
		<g>
			<path d="M305.2,192.3h-0.6c-5.6,0-9.8,3.2-10.9,9.4l-0.1,0.7h-2.2c-0.8,0-1.4,0.6-1.6,1.3l-0.3,1.6c-0.2,1,0.6,1.9,1.6,1.9h1.7
				L291,218c-0.4,2.2-1.6,2.5-3.1,2.5h-1.1c-0.8,0-1.2,0.3-1.3,1.1l-0.8,3.3c-0.2,1,1.3,2,3.4,2c4.2,0,8.2-2,9.4-7.9l1.9-11.8h2.7
				c0.8,0,1.4-0.6,1.6-1.3l0.3-1.6c0.2-1-0.6-1.9-1.6-1.9h-2.1l0.1-0.7c0.4-2.2,1.7-3.2,3.2-3.2h1.1c0.8,0,1.4-0.6,1.6-1.3l0.5-3
				C306.9,193.2,306.1,192.3,305.2,192.3z"/>
			<path d="M317.6,201.9c-5.4,0-10.8,3.9-11.9,10.1c-1.1,6,3,10,8.4,10c5.5,0,11-3.9,12-10C327.2,205.9,323.1,201.9,317.6,201.9z
				 M319.8,212c-0.4,2.2-2.5,4-4.7,4s-3.7-1.8-3.3-4c0.4-2.2,2.5-4,4.7-4S320.2,209.8,319.8,212z"/>
			<path d="M344,201.9c-1.9,0-5.4,0.1-7,3.8l0.5-1.4c0.2-1-0.6-1.9-1.6-1.9h-3c-0.8,0-1.4,0.6-1.6,1.3l-2.8,16
				c-0.2,1,0.6,1.9,1.6,1.9h3.3c0.8,0,1.4-0.6,1.6-1.3l0.9-5c1-5.8,2.8-7.2,5.3-7.2c0.4,0,1,0,1.7,0.1s1.5-0.3,1.8-1l1.4-3.2
				C346.5,203.2,345.9,201.9,344,201.9z"/>
		</g>
	</g>
	<path class="st0" d="M229.1,131.5c-24.6-59.4-92.9-87.7-152.3-63.1s-87.7,92.9-63.1,152.3c11.9,28.8,34.3,51.2,63.1,63.1
		c14.4,6,29.5,8.9,44.6,8.9s30.2-3,44.6-8.9c28.8-11.9,51.2-34.3,63.1-63.1S241,160.2,229.1,131.5z M68.9,197.8
		c-5.8-14-5.8-29.5,0-43.5s16.7-24.9,30.8-30.8c14-5.8,29.5-5.8,43.5,0s24.9,16.7,30.8,30.8c12,29-1.8,62.3-30.8,74.3
		S80.9,226.8,68.9,197.8z M162.2,77.6L162.2,77.6L147,114.3l0,0c-16.5-6.8-34.7-6.8-51.2,0l0,0L80.6,77.6
		C107,66.7,135.9,66.7,162.2,77.6z M23,135.3l36.7,15.2l0,0c-6.8,16.5-6.8,34.7,0,51.1l0,0L23,216.9l0,0
		C11.7,189.7,12.6,160.5,23,135.3z M80.6,274.6L80.6,274.6l15.2-36.8c8.1,3.3,16.8,5.2,25.6,5.2c8.5,0,17.2-1.6,25.5-5.1l15.2,36.7
		C135.9,285.5,106.9,285.5,80.6,274.6z M219.9,216.9L219.9,216.9l-36.7-15.2c6.8-16.5,6.8-34.7,0-51.1l0,0l36.7-15.2
		C230.8,161.6,230.8,190.6,219.9,216.9z"/>
</g>
<rect x="655.1" y="5.3" width="2.7" height="339"/>
<g>
	<path d="M765.8,157.9v5.9c0,1.5-0.8,2.3-2.3,2.3H736c-1.5,0-2.3-0.8-2.3-2.3V116c0-1.5,0.8-2.3,2.3-2.3h7.3c1.4,0,2.3,0.8,2.3,2.3
		v39.6h17.8C764.9,155.6,765.8,156.5,765.8,157.9z"/>
	<path d="M816.7,139.7c0,16.7-9.6,27.4-24.9,27.4c-15.3,0-24.9-10.6-24.9-27.4s9.6-27.3,24.9-27.3
		C807.1,112.4,816.7,122.9,816.7,139.7z M779.5,139.7c0,10.4,4.8,16.9,12.3,16.9c7.6,0,12.3-6.5,12.3-16.9s-4.7-16.9-12.3-16.9
		C784.2,122.9,779.5,129.4,779.5,139.7z"/>
	<path d="M864.7,116.3L850,164.2c-0.5,1.3-1.4,1.9-2.7,1.9h-11.8c-1.3,0-2.2-0.6-2.6-1.9l-14.8-47.9c-0.5-1.6,0.3-2.6,2-2.6h7.9
		c1.4,0,2.2,0.7,2.5,2l10.7,40.6l10.7-40.6c0.4-1.3,1.3-2,2.6-2h8C864.4,113.6,865.2,114.6,864.7,116.3z"/>
	<path d="M879.9,166.1h-7.3c-1.5,0-2.3-0.8-2.3-2.3V116c0-1.5,0.8-2.3,2.3-2.3h7.3c1.4,0,2.3,0.8,2.3,2.3v47.8
		C882.2,165.3,881.3,166.1,879.9,166.1z"/>
	<path d="M940.1,116v47.8c0,1.5-0.8,2.3-2.3,2.3h-11c-1.2,0-2.2-0.5-2.8-1.6l-12.9-21.9l-6.7-12.3v33.4c0,1.5-0.9,2.3-2.3,2.3h-6.4
		c-1.5,0-2.3-0.8-2.3-2.3V116c0-1.5,0.8-2.3,2.3-2.3h10.8c1.2,0,2.1,0.5,2.7,1.6l14.1,24.4l5.5,10.2V116c0-1.5,0.8-2.3,2.3-2.3h6.7
		C939.2,113.6,940.1,114.5,940.1,116z"/>
	<path d="M995.6,141v1.5c0,16.5-9.4,24.6-22.9,24.6c-15.4,0-24.1-10.6-24.1-27.1c0-17.1,9.3-27.6,24-27.6c10,0,18.7,4.9,21.5,14.2
		c0.5,1.5-0.3,2.5-1.8,2.8l-7.4,1.2c-1.4,0.3-2.2-0.4-2.8-1.7c-1.6-4-4.8-6-9.1-6c-7.6,0-11.8,6.2-11.8,17.2
		c0,10.1,3.5,16.5,11.8,16.5c5.8,0,9.3-3.1,9.8-9.4h-7.5c-1.5,0-2.4-0.9-2.4-2.3v-4c0-1.5,0.9-2.3,2.4-2.3h18
		C994.8,138.7,995.6,139.5,995.6,141z"/>
	<path d="M793.1,186v47.8c0,1.5-0.8,2.3-2.3,2.3H784c-1.4,0-2.3-0.8-2.3-2.3l0.2-32.1l-7.3,20.5l-5,12.1c-0.5,1.2-1.3,1.8-2.7,1.8
		h-7c-1.3,0-2.2-0.5-2.7-1.8l-5-12.2l-7.1-20.2v31.9c0,1.5-0.9,2.3-2.3,2.3h-6.7c-1.5,0-2.3-0.8-2.3-2.3V186c0-1.5,0.8-2.3,2.3-2.3
		h10.5c1.4,0,2.2,0.5,2.7,1.9l14.4,38.5l14.6-38.5c0.5-1.3,1.4-1.9,2.7-1.9h10C792.3,183.6,793.1,184.5,793.1,186z"/>
	<path d="M839,227.9v5.9c0,1.5-0.8,2.3-2.3,2.3h-30.1c-1.5,0-2.3-0.8-2.3-2.3V186c0-1.5,0.8-2.3,2.3-2.3h29.5c1.5,0,2.4,0.8,2.4,2.3
		v5.9c0,1.4-0.9,2.3-2.4,2.3h-19.9v10H832c1.5,0,2.3,0.8,2.3,2.3v5.9c0,1.5-0.8,2.3-2.3,2.3h-15.8v10.7h20.4
		C838.1,225.6,839,226.5,839,227.9z"/>
	<path d="M905.7,186v47.8c0,1.5-0.8,2.3-2.3,2.3h-6.8c-1.4,0-2.3-0.8-2.3-2.3l0.2-32.1l-7.3,20.5l-5,12.1c-0.5,1.2-1.3,1.8-2.7,1.8
		h-7c-1.3,0-2.2-0.5-2.7-1.8l-5-12.2l-7.1-20.2v31.9c0,1.5-0.9,2.3-2.3,2.3h-6.7c-1.5,0-2.3-0.8-2.3-2.3V186c0-1.5,0.8-2.3,2.3-2.3
		H859c1.4,0,2.2,0.5,2.7,1.9l14.4,38.5l14.6-38.5c0.5-1.3,1.4-1.9,2.7-1.9h10C904.9,183.6,905.7,184.5,905.7,186z"/>
	<path d="M964.1,209.7c0,16.7-9.6,27.4-24.9,27.4c-15.3,0-24.9-10.6-24.9-27.4s9.6-27.3,24.9-27.3
		C954.5,182.4,964.1,192.9,964.1,209.7z M926.9,209.7c0,10.4,4.8,16.9,12.3,16.9c7.6,0,12.3-6.5,12.3-16.9s-4.7-16.9-12.3-16.9
		C931.6,192.9,926.9,199.4,926.9,209.7z"/>
	<path d="M1010.6,236.1h-8.5c-1.3,0-2.1-0.5-2.8-1.7L989,216.8h-5v16.9c0,1.5-0.9,2.3-2.3,2.3h-7.3c-1.5,0-2.3-0.8-2.3-2.3V186
		c0-1.5,0.8-2.3,2.3-2.3h18.2c11.9,0,19.4,6.4,19.4,16.8c0,7.2-3.8,12.5-10.4,14.9l10.6,18C1013.1,235,1012.4,236.1,1010.6,236.1z
		 M984.1,207.6h7.2c5,0,8.2-2.8,8.2-7.1s-3.2-7-8.2-7h-7.2V207.6z"/>
	<path d="M1028.6,236.1h-7.3c-1.5,0-2.3-0.8-2.3-2.3V186c0-1.5,0.8-2.3,2.3-2.3h7.3c1.4,0,2.3,0.8,2.3,2.3v47.8
		C1030.9,235.3,1030,236.1,1028.6,236.1z"/>
	<path d="M1076.7,227.9v5.9c0,1.5-0.8,2.3-2.3,2.3h-30.1c-1.5,0-2.3-0.8-2.3-2.3V186c0-1.5,0.8-2.3,2.3-2.3h29.5
		c1.5,0,2.4,0.8,2.4,2.3v5.9c0,1.4-0.9,2.3-2.4,2.3H1054v10h15.8c1.5,0,2.3,0.8,2.3,2.3v5.9c0,1.5-0.8,2.3-2.3,2.3H1054v10.7h20.4
		C1075.9,225.6,1076.7,226.5,1076.7,227.9z"/>
	<path d="M1083.1,221l7.4-1.3c1.4-0.2,2.2,0.4,2.9,1.7c1.7,4,5.2,6.1,10.1,6.1c4.7,0,7.4-1.9,7.4-5.2c0-10.4-28.3-5.7-28.3-24.1
		c0-10.5,8.6-15.6,19.3-15.6c10.6,0,17.1,5.2,19.5,12.4c0.5,1.5-0.3,2.5-1.9,2.8l-7.3,1.2c-1.4,0.2-2.2-0.4-2.8-1.7
		c-1.4-3.1-4.1-5.1-7.8-5.1c-4.4,0-6.9,2.4-6.9,5.2c0,9.4,28.4,5.2,28.4,23.6c0,9.9-7.6,16.1-19.4,16.1c-12,0-19.6-5.6-22.3-13.3
		C1080.8,222.3,1081.6,221.3,1083.1,221z"/>
</g>
</svg>
